<svg xmlns="http://www.w3.org/2000/svg" viewBox="0 0 64.125 64.124" overflow="visible"><path d="M32.063 0C14.355 0 0 14.356 0 32.062 0 49.77 14.355 64.124 32.063 64.124c17.707 0 32.062-14.354 32.062-32.062C64.125 14.356 49.77 0 32.063 0zm12.798 27.074c.012.281.018.566.018.852 0 8.709-6.626 18.747-18.747 18.747a18.669 18.669 0 01-10.1-2.959c.515.062 1.04.091 1.572.091 3.086 0 5.928-1.053 8.183-2.821a6.588 6.588 0 01-6.154-4.574c.4.077.815.117 1.239.117.602 0 1.184-.077 1.737-.232a6.59 6.59 0 01-5.287-6.461v-.081c.889.491 1.906.79 2.986.823a6.59 6.59 0 01-2.932-5.484c0-1.208.325-2.339.892-3.316 3.252 3.989 8.106 6.61 13.582 6.885a6.557 6.557 0 01-.169-1.5 6.59 6.59 0 0111.396-4.509 13.164 13.164 0 004.185-1.597 6.595 6.595 0 01-2.897 3.644 13.197 13.197 0 003.784-1.037c-.881 1.321-2 2.482-3.288 3.412z" fill="#fff"/></svg>